<?xml version="1.0" encoding="UTF-8" standalone="no"?>
<svg width="60px" height="60px" viewBox="0 0 60 60" version="1.1" xmlns="http://www.w3.org/2000/svg" xmlns:xlink="http://www.w3.org/1999/xlink" xmlns:sketch="http://www.bohemiancoding.com/sketch/ns">
    <!-- Generator: Sketch 3.4 (15575) - http://www.bohemiancoding.com/sketch -->
    <title>avatar-icon</title>
    <desc>Created with Sketch.</desc>
    <defs>
        <circle id="path-1" cx="30" cy="30" r="30"/>
    </defs>
    <g id="Discover-/-Make" stroke="none" stroke-width="1" fill="none" fill-rule="evenodd" sketch:type="MSPage">
        <g id="Discover-VIew" sketch:type="MSArtboardGroup" transform="translate(-51.000000, -626.000000)">
            <g id="avatar-icon" sketch:type="MSLayerGroup" transform="translate(51.000000, 626.000000)">
                <mask id="mask-2" sketch:name="Oval 173" fill="white">
                    <use xlink:href="#path-1"/>
                </mask>
                <use id="Oval-173" fill="#6BA1FE" sketch:type="MSShapeGroup" xlink:href="#path-1"/>
                <path d="M29.8125,29.1875 C28.1718668,29.1875 26.7773495,28.613287 25.6289062,27.4648438 C24.480463,26.3164005 23.90625,24.9218832 23.90625,23.28125 C23.90625,21.6406168 24.480463,20.2460995 25.6289062,19.0976562 C26.7773495,17.949213 28.1718668,17.375 29.8125,17.375 C31.4531332,17.375 32.8476505,17.949213 33.9960938,19.0976562 C35.144537,20.2460995 35.71875,21.6406168 35.71875,23.28125 C35.71875,24.9218832 35.144537,26.3164005 33.9960938,27.4648438 C32.8476505,28.613287 31.4531332,29.1875 29.8125,29.1875 L29.8125,29.1875 Z M29.8125,32.140625 C32.2734498,32.140625 34.8574083,32.6840766 37.5644531,33.7709961 C40.2714979,34.8579156 41.625,36.2831943 41.625,38.046875 L41.625,41 L18,41 L18,38.046875 C18,36.2831943 19.3535021,34.8579156 22.0605469,33.7709961 C24.7675917,32.6840766 27.3515502,32.140625 29.8125,32.140625 L29.8125,32.140625 Z" id="" fill="#FFFFFF" sketch:type="MSShapeGroup" mask="url(#mask-2)"/>
            </g>
        </g>
    </g>
</svg>