<svg width="60" height="60" viewBox="0 0 60 60" xmlns="http://www.w3.org/2000/svg" xmlns:xlink="http://www.w3.org/1999/xlink"><title>avatar-icon</title><desc>Created with Sketch.</desc><defs><circle id="a" cx="30" cy="30" r="30"/></defs><g fill="none" fill-rule="evenodd"><g><g><g transform="translate(0 0)"><mask><use xlink:href="#a"/></mask><use fill="#9CA6B5" xlink:href="#a"/><path d="M29.813 29.188c-1.64 0-3.036-.575-4.184-1.723-1.15-1.15-1.724-2.543-1.724-4.184 0-1.64.574-3.034 1.723-4.182 1.147-1.15 2.542-1.723 4.183-1.723 1.64 0 3.035.574 4.183 1.723 1.15 1.148 1.723 2.543 1.723 4.183 0 1.642-.575 3.036-1.724 4.185-1.148 1.148-2.543 1.723-4.184 1.723zm0 2.953c2.46 0 5.044.544 7.75 1.63 2.708 1.088 4.062 2.513 4.062 4.277V41H18v-2.953c0-1.764 1.354-3.19 4.06-4.276 2.708-1.086 5.292-1.63 7.753-1.63z" fill="#fff"/></g></g></g></g></svg>