<svg width="106" height="105" viewBox="0 0 106 105" xmlns="http://www.w3.org/2000/svg"><title>link</title><desc>Created with Sketch.</desc><defs><linearGradient x1="50%" y1="0%" x2="50%" y2="100%"><stop stop-opacity="0" offset="0%"/><stop offset="100%"/></linearGradient><linearGradient x1="50%" y1="0%" x2="50%" y2="100%"><stop stop-color="#fff" offset="0%"/><stop stop-color="#fff" stop-opacity="0" offset="100%"/></linearGradient></defs><g fill="none" fill-rule="evenodd"><g fill="#669EFF"><g><g><path d="M76.52 11.898c-1.634 0-3.023.567-4.166 1.7l-12.746 12.62c-1.143 1.133-1.715 2.51-1.715 4.127 0 1.7.653 3.155 1.96 4.37.123-.123.5-.507 1.134-1.154.633-.646 1.072-1.08 1.318-1.304.245-.222.633-.526 1.164-.91.53-.384 1.05-.647 1.56-.79.512-.14 1.074-.21 1.686-.21 1.634 0 3.023.565 4.167 1.698 1.144 1.133 1.716 2.508 1.716 4.126 0 .607-.073 1.163-.216 1.67-.143.504-.408 1.02-.796 1.546-.388.526-.695.91-.92 1.153-.224.242-.663.677-1.317 1.304-.653.627-1.04 1-1.163 1.122 1.266 1.335 2.757 2.003 4.473 2.003 1.634 0 3.023-.568 4.167-1.7l12.683-12.5c1.103-1.093 1.655-2.468 1.655-4.127 0-1.618-.53-2.993-1.593-4.126l-8.946-8.92c-1.144-1.132-2.513-1.7-4.106-1.7zM33.322 54.556c-1.634 0-3.023.566-4.167 1.7l-12.684 12.5c-1.143 1.132-1.715 2.507-1.715 4.125 0 1.58.552 2.954 1.655 4.128l8.946 8.92c1.144 1.132 2.512 1.698 4.105 1.698 1.635 0 3.024-.566 4.168-1.7l12.745-12.62c1.103-1.092 1.655-2.468 1.655-4.126 0-1.7-.634-3.155-1.9-4.37-.123.122-.5.507-1.134 1.154-.633.647-1.072 1.082-1.317 1.304-.245.223-.633.526-1.164.91-.53.385-1.052.648-1.563.79-.51.14-1.072.212-1.685.212-1.634 0-3.023-.566-4.166-1.7-1.145-1.132-1.717-2.507-1.717-4.125 0-.607.07-1.163.214-1.67.143-.505.41-1.02.797-1.546.388-.527.694-.912.92-1.154.224-.243.663-.678 1.316-1.305.654-.626 1.042-1 1.165-1.122-1.267-1.334-2.758-2.002-4.473-2.002zM76.52.248c4.902 0 9.048 1.72 12.44 5.158l8.945 8.92c3.39 3.357 5.086 7.463 5.086 12.317 0 4.895-1.735 9.02-5.208 12.38L85.1 51.522c-3.392 3.357-7.538 5.035-12.44 5.035-5.025 0-9.293-1.78-12.806-5.34l-5.393 5.34c3.596 3.48 5.394 7.687 5.394 12.622 0 4.854-1.716 8.98-5.148 12.378L41.96 94.18c-3.43 3.398-7.597 5.097-12.5 5.097-4.9 0-9.047-1.72-12.437-5.158L8.077 85.2C4.687 81.84 2.99 77.735 2.99 72.88c0-4.894 1.737-9.02 5.21-12.377l12.683-12.5c3.39-3.358 7.537-5.037 12.44-5.037 5.023 0 9.292 1.78 12.805 5.34l5.392-5.34c-3.595-3.48-5.392-7.686-5.392-12.62 0-4.856 1.716-8.982 5.147-12.38L64.02 5.346c3.432-3.4 7.598-5.098 12.5-5.098z"/></g></g></g></g></svg>