<svg width="76" height="74" viewBox="0 0 76 74" xmlns="http://www.w3.org/2000/svg"><title>source-icon</title><desc>Created with Sketch.</desc><g fill="none" fill-rule="evenodd"><g fill="#F3F6FC"><g><g><g><path d="M36.626 44.037L36.49 8.284h-6.658L38.355 0l8.524 8.284h-6.66l.135 35.753h-3.73z"/><path d="M40.324 29.873l.134 35.754h6.66l-8.524 8.284-8.523-8.283h6.66l-.135-35.754h3.73z"/></g><g><g><path d="M38.355 35.602v3.628H8.595v6.48L.234 37.416l8.363-8.294v6.48h29.759z" id="Path-Copy"/><path d="M37.878 39.23v-3.628h29.76v-6.48L76 37.416l-8.363 8.294v-6.48H37.878z" id="Path-Copy-4"/></g><g><path d="M35.964 36.984l2.566 2.565-21.04 21.04 4.58 4.58-11.775.05.048-11.777 4.582 4.58 8.485-8.485 12.554-12.554z" id="Path-Copy"/><path d="M38.192 39.887l-2.565-2.566 21.04-21.038-4.582-4.58 11.777-.05-.05 11.776-4.58-4.58-8.485 8.485-12.555 12.554z" id="Path-Copy-4"/></g><g><path d="M37.863 39.135l2.61-2.522L61.154 58.01l4.658-4.503-.15 11.777-11.776-.25 4.66-4.502-8.343-8.63-12.34-12.767z"/><path d="M40.804 36.956l-2.61 2.522-20.682-21.396-4.66 4.503.152-11.777 11.776.248-4.66 4.504 8.343 8.63 12.34 12.766z"/></g></g></g></g></g></g></svg>