<svg width="22" height="22" viewBox="0 0 22 22" xmlns="http://www.w3.org/2000/svg"><title>android-color-palette - Ionicons</title><desc>Created with Sketch.</desc><g fill="none" fill-rule="evenodd"><g fill="#669EFF"><path d="M11 0c3.017 0 5.605.955 7.763 2.865C20.92 4.775 22 7.085 22 9.797c0 1.68-.602 3.113-1.805 4.297-1.203 1.184-2.645 1.776-4.325 1.776h-2.177c-.497 0-.927.18-1.29.544-.362.363-.544.793-.544 1.29 0 .534.152.954.458 1.26.343.343.515.744.515 1.203 0 .534-.172.974-.515 1.317-.344.344-.783.516-1.318.516-3.056 0-5.653-1.07-7.792-3.208C1.068 16.652 0 14.056 0 11s1.07-5.653 3.208-7.792C5.348 1.068 7.944 0 11 0zM4.297 11c.496 0 .926-.172 1.29-.516.362-.343.543-.783.543-1.317 0-.535-.18-.974-.544-1.318-.363-.345-.793-.517-1.29-.517-.496 0-.925.172-1.288.516-.363.343-.544.782-.544 1.317 0 .534.18.974.544 1.317.363.344.792.516 1.29.516zm3.667-4.87c.496 0 .926-.18 1.29-.544.36-.363.543-.793.543-1.29 0-.496-.182-.925-.544-1.288-.363-.363-.793-.544-1.29-.544-.496 0-.926.18-1.29.544-.36.363-.543.792-.543 1.29 0 .495.182.925.544 1.288.363.363.793.544 1.29.544zm6.072 0c.497 0 .927-.18 1.29-.544.362-.363.544-.793.544-1.29 0-.496-.182-.925-.544-1.288-.363-.363-.793-.544-1.29-.544-.496 0-.926.18-1.29.544-.36.363-.543.792-.543 1.29 0 .495.182.925.544 1.288.363.363.793.544 1.29.544zM17.703 11c.497 0 .926-.172 1.29-.516.362-.343.543-.783.543-1.317 0-.535-.18-.974-.544-1.318-.363-.345-.792-.517-1.29-.517-.495 0-.925.172-1.288.516-.363.343-.544.782-.544 1.317 0 .534.18.974.544 1.317.363.344.793.516 1.29.516z"/></g></g></svg>