<svg width="28" height="20" viewBox="0 0 28 20" xmlns="http://www.w3.org/2000/svg">
    <g fill="none" fill-rule="evenodd">
        <g fill="#6AA0FC">
            <g>
                <g transform="translate(.667 0)">
                    <rect x="18.167" y="5.833" width="8.333" height="2.5" rx="8"/>
                    <path d="M14.373 8.804c0-1.632-.58-3.028-1.74-4.187-1.16-1.16-2.555-1.74-4.187-1.74-1.63 0-3.027.58-4.186 1.74-1.16 1.16-1.74 2.555-1.74 4.187 0 1.63.58 3.027 1.74 4.186 1.16 1.16 2.555 1.74 4.186 1.74 1.632 0 3.028-.58 4.187-1.74 1.16-1.16 1.74-2.555 1.74-4.186zm5.28 9.71c0 .406-.15.756-.445 1.05-.295.297-.646.445-1.05.445-.42 0-.77-.15-1.05-.445l-4.004-3.992c-1.393.965-2.946 1.448-4.658 1.448-1.112 0-2.176-.215-3.192-.647-1.015-.432-1.89-1.015-2.626-1.75-.736-.736-1.32-1.612-1.75-2.627-.433-1.016-.65-2.08-.65-3.192 0-1.113.217-2.177.65-3.193.43-1.014 1.014-1.89 1.75-2.625.735-.735 1.61-1.32 2.626-1.75C6.27.8 7.334.584 8.446.584c1.113 0 2.177.217 3.193.65 1.014.43 1.89 1.015 2.625 1.75.735.735 1.32 1.61 1.75 2.626.433 1.017.65 2.08.65 3.194 0 1.712-.484 3.264-1.45 4.657l4.005 4.004c.288.288.432.638.432 1.05z"/>
                </g>
            </g>
        </g>
    </g>
</svg>
